<?xml version="1.0" encoding="UTF-8"?>
<svg id="_ÎÓÈ_1" data-name="—ÎÓÈ_1" xmlns="http://www.w3.org/2000/svg" viewBox="0 0 1030 450">
  <defs>
    <style>
      .cls-1 {
        fill: #363636;
      }

      .cls-1, .cls-2 {
        stroke-width: 0px;
      }

      .cls-2 {
        fill: #fff;
      }
    </style>
  </defs>
  <rect class="cls-2" width="1030" height="450"/>
  <g>
    <g>
      <path class="cls-1" d="m159.68,112.21c-.26,0-.52-.1-.71-.3-.3-.3-.37-.76-.19-1.14l13.7-28c.24-.5.84-.7,1.34-.46.5.24.7.84.46,1.34l-12.44,25.44,27.7-13.09c.5-.23,1.1-.02,1.33.48.24.5.02,1.1-.48,1.33l-30.28,14.31c-.14.06-.28.1-.43.1Z"/>
      <path class="cls-1" d="m180.54,71.16c-.32,0-.63-.16-.82-.43-.22-.31-.24-.72-.05-1.06l14.69-26.27c.2-.36.6-.56,1.01-.5l82.94,11.31c.49.07.86.49.87.98s-.36.92-.85,1l-97.63,14.96c-.05,0-.1.01-.15.01Zm15.23-26.19l-13.36,23.89,88.78-13.6-75.42-10.29Z"/>
      <path class="cls-1" d="m194.25,101.44c-.22,0-.45-.08-.64-.23l-20.87-17.23c-.29-.24-.42-.62-.34-.98s.36-.66.72-.75l11.66-3.12c.53-.14,1.08.17,1.22.71.14.53-.17,1.08-.71,1.22l-9.79,2.61,19.37,16c.43.35.49.98.13,1.41-.2.24-.48.36-.77.36Z"/>
      <path class="cls-1" d="m194.25,101.44c-.11,0-.22-.02-.32-.05-.26-.09-.48-.28-.59-.53l-13.71-30.28c-.13-.28-.12-.61.03-.89.15-.27.42-.46.73-.51l97.63-14.96c.47-.07.94.21,1.1.67.15.46-.05.97-.47,1.2l-83.92,45.24c-.15.08-.31.12-.47.12Zm-12.25-30.5l12.72,28.11,77.89-41.99-90.61,13.88Z"/>
    </g>
    <g>
      <path class="cls-1" d="m29.5,73.89c-.27,0-.54-.09-.77-.27-.98-.77-1.98-1.63-2.97-2.54-.51-.47-.54-1.26-.07-1.77.47-.51,1.26-.54,1.77-.07.94.87,1.89,1.68,2.82,2.42.54.43.63,1.21.21,1.76-.25.31-.61.48-.98.48Z"/>
      <path class="cls-1" d="m135.95,88.56c-.42,0-.84,0-1.25-.03-.69-.03-1.23-.61-1.2-1.3.03-.69.61-1.22,1.3-1.2,2.21.09,4.69-.09,7.48-.54.68-.11,1.32.35,1.43,1.04.11.68-.35,1.32-1.04,1.43-2.45.39-4.72.59-6.74.59Zm-8.5-2.16c-.26,0-.53-.08-.75-.25-2.01-1.51-3.52-3.78-4.63-6.94-.23-.65.12-1.36.77-1.59.65-.23,1.36.11,1.59.77.94,2.68,2.17,4.57,3.77,5.77.55.42.66,1.2.25,1.75-.25.33-.62.5-1,.5Zm22.62-.08c-.55,0-1.06-.37-1.21-.92-.18-.67.21-1.35.88-1.53,2.33-.63,4.8-1.4,7.33-2.27.65-.22,1.36.12,1.59.77.23.65-.12,1.36-.77,1.59-2.59.9-5.11,1.68-7.5,2.33-.11.03-.22.04-.33.04Zm-106.59-6.18s-.08,0-.12,0c-2.6-.24-5.24-.99-7.85-2.23-.62-.29-.89-1.04-.6-1.66s1.04-.89,1.66-.6c2.35,1.11,4.71,1.78,7.01,2,.69.06,1.19.67,1.13,1.36-.06.65-.61,1.13-1.24,1.13Zm7.66-.78c-.54,0-1.04-.35-1.2-.9-.19-.66.19-1.36.85-1.55,2.19-.64,4.39-1.65,6.73-3.09.59-.36,1.36-.18,1.72.41.36.59.18,1.36-.41,1.72-2.53,1.55-4.93,2.65-7.33,3.35-.12.03-.24.05-.35.05Zm70.35-6.89c-.6,0-1.13-.44-1.23-1.05-.21-1.29-.4-2.61-.59-3.94-.18-1.25-.36-2.5-.56-3.75-.11-.68.35-1.32,1.04-1.43.68-.11,1.32.35,1.43,1.04.2,1.26.39,2.53.57,3.79.19,1.32.38,2.62.59,3.9.11.68-.35,1.32-1.03,1.43-.07.01-.14.02-.2.02Zm-57.05-.91c-.36,0-.71-.15-.96-.45-.44-.53-.37-1.32.16-1.76,1.7-1.41,3.51-3.05,5.71-5.14.5-.48,1.29-.46,1.77.04.48.5.46,1.29-.04,1.77-2.24,2.13-4.09,3.8-5.84,5.25-.23.19-.52.29-.8.29Zm11.35-10.62c-.33,0-.65-.13-.89-.38-.48-.49-.47-1.29.02-1.77,1.79-1.75,3.72-3.61,5.68-5.38.51-.46,1.3-.42,1.77.09.46.51.42,1.3-.09,1.77-1.93,1.74-3.83,3.58-5.61,5.31-.24.24-.56.36-.87.36Zm42.89-3.75c-.54,0-1.03-.35-1.2-.89-.83-2.71-1.86-4.85-3.17-6.54-.42-.55-.32-1.33.22-1.75.55-.42,1.33-.32,1.75.22,1.49,1.93,2.66,4.33,3.58,7.34.2.66-.17,1.36-.83,1.56-.12.04-.24.05-.36.05Zm-31.25-6.52c-.39,0-.77-.18-1.01-.51-.41-.56-.28-1.34.27-1.75,2.41-1.75,4.66-3.09,6.88-4.09.63-.28,1.37,0,1.65.63.28.63,0,1.37-.63,1.65-2.06.92-4.17,2.18-6.43,3.83-.22.16-.48.24-.73.24Zm21.73-4.91c-.14,0-.29-.02-.43-.08-.64-.24-1.33-.43-2.05-.59-1.68-.36-3.39-.48-5.05-.35-.69.06-1.29-.47-1.34-1.16-.05-.69.47-1.29,1.16-1.34,1.9-.14,3.85,0,5.76.4.83.18,1.64.41,2.39.68.65.24.98.96.74,1.6-.19.51-.66.82-1.17.82Z"/>
      <path class="cls-1" d="m164.89,81.22c-.49,0-.96-.29-1.16-.77-.26-.64.04-1.37.68-1.63,2.13-.88,3.44-1.48,3.45-1.48.63-.29,1.37-.02,1.66.61.29.63.02,1.37-.61,1.66-.05.02-1.37.63-3.55,1.53-.16.06-.32.09-.48.09Z"/>
    </g>
  </g>
  <g>
    <g>
      <path class="cls-1" d="m421.4,134.85c-.12,0-.24-.02-.36-.07-.33-.13-.57-.42-.63-.76l-7.1-41.13c-.09-.54.27-1.06.82-1.16.54-.1,1.06.27,1.16.82l6.81,39.48,87.82-69.2-104.56-27.83,6.41,37.13c.09.54-.27,1.06-.82,1.16-.54.1-1.06-.27-1.16-.82l-6.67-38.67c-.06-.34.06-.68.31-.91.25-.23.6-.32.93-.23l108,28.75c.37.1.65.39.72.76.08.37-.06.75-.36.99l-90.71,71.48c-.18.14-.4.21-.62.21Z"/>
      <path class="cls-1" d="m395.57,85.51c-.38,0-.74-.22-.91-.58-.19-.42-.08-.91.28-1.2l15.21-12.21c.15-.12.33-.2.53-.22l101.33-9.92c.54-.05,1.01.32,1.09.85.08.53-.28,1.02-.8,1.12l-116.54,22.13c-.06.01-.12.02-.19.02Zm15.6-12.24l-11.85,9.51,90.8-17.24-78.95,7.73Z"/>
      <path class="cls-1" d="m414.31,93.72c-.14,0-.27-.03-.4-.08l-18.73-8.22c-.51-.22-.74-.81-.51-1.32.22-.51.81-.74,1.32-.51l18.39,8.07,97.45-30.24c.53-.16,1.09.13,1.25.66.16.53-.13,1.09-.66,1.25l-97.8,30.35c-.1.03-.2.04-.3.04Z"/>
    </g>
    <g>
      <path class="cls-1" d="m292.51,119.98c-.05,0-.11,0-.16,0-2.4-.3-3.79-.57-3.85-.58-.68-.13-1.12-.79-.99-1.47.13-.68.78-1.12,1.47-.99.01,0,1.38.27,3.68.56.68.09,1.17.71,1.08,1.4-.08.63-.62,1.09-1.24,1.09Z"/>
      <path class="cls-1" d="m305.53,120.78c-1.82,0-3.66-.05-5.49-.14-.69-.04-1.22-.62-1.18-1.31.04-.69.63-1.22,1.31-1.18,2.5.13,4.96.17,7.54.12.7-.02,1.26.53,1.28,1.22.01.69-.53,1.26-1.22,1.28-.76.02-1.5.02-2.23.02Zm9.82-.5c-.63,0-1.17-.48-1.24-1.12-.07-.69.43-1.3,1.11-1.37,2.56-.27,5.05-.65,7.42-1.13.68-.14,1.34.3,1.47.98.14.68-.3,1.34-.98,1.47-2.45.5-5.03.89-7.66,1.17-.04,0-.09,0-.13,0Zm14.92-3.09c-.53,0-1.01-.33-1.19-.86-.22-.66.14-1.36.8-1.58,2.43-.8,4.75-1.74,6.89-2.81.62-.31,1.37-.05,1.68.56.31.62.05,1.37-.56,1.67-2.25,1.12-4.68,2.11-7.22,2.94-.13.04-.26.06-.39.06Zm13.58-6.82c-.39,0-.77-.18-1.01-.51-.41-.56-.29-1.34.27-1.75,2.01-1.47,3.87-3.12,5.52-4.89.47-.51,1.26-.53,1.77-.07.51.47.54,1.26.07,1.77-1.76,1.89-3.73,3.65-5.88,5.21-.22.16-.48.24-.74.24Zm10.29-11.12c-.22,0-.45-.06-.65-.18-.59-.36-.77-1.13-.41-1.72l.26-.43c.33-.54.64-1.09.94-1.65-.74-.05-1.47-.12-2.2-.2-.69-.08-1.18-.7-1.1-1.38.08-.69.71-1.18,1.38-1.1,1.02.12,2.07.2,3.12.25.32-.7.62-1.4.89-2.11.25-.64.98-.96,1.62-.71.64.25.96.98.71,1.62-.16.42-.34.84-.51,1.26.53,0,1.06-.01,1.6-.03.69-.05,1.27.52,1.29,1.21.02.69-.52,1.27-1.21,1.29-.96.03-1.91.04-2.84.03-.48.95-1,1.89-1.55,2.82l-.27.45c-.24.38-.65.6-1.07.6Zm13.28-4.64c-.6,0-1.13-.44-1.23-1.05-.11-.68.36-1.32,1.04-1.43,2.38-.38,4.85-.9,7.33-1.56.67-.18,1.35.22,1.53.89.18.67-.22,1.35-.89,1.53-2.57.68-5.12,1.22-7.58,1.61-.07.01-.13.02-.2.02Zm-22.67-1.04c-.12,0-.24-.02-.36-.05-2.57-.77-5.02-1.77-7.28-2.99-.61-.33-.83-1.09-.51-1.69.33-.61,1.09-.83,1.69-.51,2.11,1.14,4.4,2.08,6.8,2.8.66.2,1.04.89.84,1.55-.16.54-.66.89-1.2.89Zm-13.29-7.24c-.3,0-.59-.1-.83-.31-2.01-1.78-3.77-3.78-5.23-5.95-.39-.57-.24-1.35.33-1.74s1.35-.24,1.74.34c1.35,1.99,2.97,3.84,4.82,5.48.52.46.56,1.25.11,1.76-.25.28-.59.42-.94.42Zm28.16-1.23c-.07,0-.15,0-.23-.02-.68-.12-1.13-.78-1-1.45.41-2.21.61-4.47.61-6.7,0-.21,0-.43,0-.64-.01-.69.54-1.26,1.23-1.27.7,0,1.26.55,1.27,1.23,0,.23,0,.46,0,.69,0,2.39-.22,4.79-.65,7.15-.11.6-.64,1.02-1.23,1.02Zm-36.57-11.3c-.52,0-1.01-.33-1.19-.85-.87-2.6-1.33-5.24-1.38-7.86-.01-.69.54-1.26,1.23-1.27.7,0,1.26.55,1.27,1.23.04,2.36.46,4.75,1.25,7.11.22.65-.13,1.36-.79,1.58-.13.04-.27.07-.4.07Zm36.29-3.86c-.57,0-1.09-.4-1.22-.98-.54-2.42-1.32-4.76-2.33-6.98-.29-.63,0-1.37.62-1.66.63-.29,1.37,0,1.66.62,1.08,2.37,1.92,4.88,2.49,7.47.15.67-.27,1.34-.95,1.49-.09.02-.18.03-.27.03Zm-36.42-11.12c-.14,0-.28-.02-.42-.07-.65-.23-.99-.95-.75-1.6.94-2.61,2.37-4.93,4.24-6.89.48-.5,1.27-.52,1.77-.04.5.48.52,1.27.04,1.77-1.63,1.71-2.87,3.73-3.69,6.01-.18.51-.66.83-1.18.83Zm30.1-2.64c-.37,0-.74-.17-.99-.49-1.56-2.02-3.3-3.73-5.17-5.07-.56-.4-.69-1.18-.29-1.74.4-.56,1.18-.69,1.75-.29,2.07,1.48,3.98,3.36,5.69,5.57.42.55.32,1.33-.22,1.75-.23.18-.5.26-.76.26Zm-19.83-8c-.51,0-1-.32-1.18-.83-.23-.65.11-1.37.76-1.6,2.61-.92,5.41-1.1,8.19-.51.68.14,1.11.81.96,1.48-.14.68-.8,1.11-1.48.97-2.33-.49-4.66-.35-6.84.42-.14.05-.28.07-.42.07Z"/>
      <path class="cls-1" d="m382.26,90.75c-.51,0-.99-.32-1.18-.83-.23-.65.11-1.37.76-1.6,1.16-.41,2.34-.86,3.52-1.33.64-.26,1.37.05,1.62.7.26.64-.05,1.37-.7,1.62-1.21.48-2.42.94-3.61,1.37-.14.05-.28.07-.42.07Z"/>
    </g>
  </g>
  <g>
    <g>
      <path class="cls-1" d="m156.97,233.63c-.1,0-.19-.01-.29-.04-.53-.16-.83-.72-.67-1.25l13.77-45.65c.16-.53.72-.83,1.25-.67.53.16.83.72.67,1.25l-13.77,45.65c-.13.43-.53.71-.96.71Z"/>
      <path class="cls-1" d="m233.21,238.91s-.05,0-.07,0l-76.24-5.28c-.41-.03-.77-.31-.89-.71-.12-.4.02-.83.34-1.08l35.75-27.74c.44-.34,1.06-.26,1.4.18.34.44.26,1.07-.18,1.4l-33.67,26.13,73.63,5.1c.55.04.97.52.93,1.07-.04.53-.48.93-1,.93Z"/>
      <path class="cls-1" d="m280.89,242.21c-.15,0-.3-.03-.44-.1l-110.15-54.23c-.07-.03-.13-.07-.19-.12l-35.56-28.99c-.4-.33-.49-.91-.19-1.34.29-.43.87-.56,1.32-.3l145.71,83.22c.47.27.64.86.39,1.34-.18.34-.52.53-.88.53Zm-109.61-56.08l80.86,39.81-106.96-61.09,26.1,21.28Z"/>
      <path class="cls-1" d="m244.12,247.81c-.23,0-.45-.08-.63-.22l-51.41-41.91c-.38-.31-.48-.86-.23-1.29.25-.43.78-.6,1.24-.41l88.18,36.32c.42.17.67.6.61,1.04-.05.45-.4.8-.84.87l-36.77,5.59s-.1.01-.15.01Zm-45.53-39.41l45.82,37.35,32.78-4.99-78.59-32.37Z"/>
    </g>
    <g>
      <path class="cls-1" d="m26.61,188.23c-.43,0-.84-.22-1.08-.61-.35-.59-.16-1.36.44-1.71.05-.03,1.33-.79,3.52-1.78.63-.29,1.37,0,1.66.62.29.63,0,1.37-.62,1.66-2.05.93-3.26,1.65-3.28,1.65-.2.12-.42.18-.64.18Z"/>
      <path class="cls-1" d="m134.52,235.23c-1.86,0-3.65-.08-5.32-.25-.69-.07-1.19-.68-1.12-1.37.07-.69.68-1.19,1.37-1.12,2.23.22,4.64.28,7.27.2.68-.05,1.27.52,1.29,1.21.02.69-.52,1.27-1.21,1.29-.78.03-1.54.04-2.28.04Zm-75.31-.87c-.54,0-1.08-.04-1.6-.12-.68-.1-1.15-.74-1.05-1.42.1-.68.75-1.15,1.42-1.05,1.91.29,4.14-.13,6.51-1.23.62-.29,1.37-.02,1.66.6.29.63.02,1.37-.6,1.66-2.21,1.03-4.35,1.56-6.35,1.56Zm62.82-.79c-.12,0-.25-.02-.37-.06-2.61-.82-4.91-1.92-7.01-3.36-.57-.39-.72-1.17-.33-1.74.39-.57,1.17-.72,1.74-.33,1.9,1.3,3.98,2.29,6.35,3.04.66.21,1.03.91.82,1.57-.17.53-.66.88-1.19.88Zm-70.27-3.33c-.37,0-.74-.17-.99-.49-1.7-2.2-2.74-4.7-3.07-7.41-.09-.69.4-1.31,1.09-1.39.69-.09,1.31.4,1.39,1.09.28,2.26,1.15,4.34,2.57,6.19.42.55.32,1.33-.23,1.75-.23.18-.5.26-.76.26Zm19.4-1.5c-.34,0-.68-.14-.93-.41-.46-.51-.43-1.3.08-1.77,1.74-1.58,3.32-3.4,4.69-5.4.39-.57,1.17-.71,1.74-.32.57.39.71,1.17.32,1.74-1.48,2.16-3.19,4.12-5.07,5.83-.24.22-.54.33-.84.33Zm38.77-3.43c-.36,0-.72-.16-.97-.46-1.75-2.16-3.21-4.51-4.27-6.32-.35-.59-.15-1.36.44-1.71.59-.35,1.36-.15,1.71.44,1.02,1.73,2.41,3.98,4.06,6.01.44.54.35,1.32-.18,1.76-.23.19-.51.28-.79.28Zm-30.42-8.77c-.15,0-.3-.03-.44-.08-.65-.24-.97-.97-.73-1.61.87-2.3,1.4-4.62,1.56-6.89.05-.69.66-1.21,1.34-1.16.69.05,1.21.65,1.16,1.34-.18,2.51-.76,5.07-1.72,7.6-.19.5-.66.81-1.17.81Zm-29.74-.44c-.13,0-.26-.02-.39-.06-.66-.22-1.01-.92-.79-1.58.78-2.35,1.99-4.68,3.61-6.92.4-.56,1.19-.69,1.74-.28.56.4.69,1.18.28,1.74-1.46,2.03-2.56,4.14-3.26,6.25-.17.52-.66.86-1.19.86Zm52.26-3.4c-.42,0-.84-.22-1.07-.61-1.47-2.43-2.78-4.34-4.12-5.98-.44-.53-.36-1.32.18-1.76.53-.44,1.32-.36,1.76.18,1.42,1.74,2.8,3.74,4.33,6.28.36.59.17,1.36-.43,1.72-.2.12-.42.18-.64.18Zm-43.78-8.65c-.35,0-.7-.15-.95-.43-.45-.52-.39-1.31.13-1.76,1.96-1.69,4.1-3.15,6.37-4.36.61-.32,1.37-.09,1.69.52.32.61.09,1.37-.52,1.69-2.1,1.12-4.09,2.48-5.91,4.04-.24.2-.53.3-.81.3Zm22.17-2.13c-.54,0-1.05-.36-1.2-.91-.46-1.62-1.13-3.18-2.01-4.67-1.84.05-3.71.31-5.58.78-.67.16-1.35-.24-1.52-.91-.17-.67.24-1.35.91-1.52,1.64-.41,3.28-.68,4.91-.79.03-.35.21-.69.52-.91.56-.4,1.34-.27,1.74.29.14.19.27.38.4.57.06,0,.11,0,.17,0,.69.03,1.23.61,1.2,1.3,0,.23-.08.45-.2.63.8,1.46,1.42,2.98,1.86,4.55.19.66-.2,1.36-.86,1.54-.11.03-.23.05-.34.05Zm12.06-.54c-.26,0-.53-.08-.76-.26-1.93-1.47-4-2.63-6.17-3.42-.65-.24-.98-.96-.74-1.6.24-.65.96-.98,1.6-.74,2.4.88,4.69,2.15,6.82,3.78.55.42.65,1.2.23,1.75-.25.32-.62.49-.99.49Zm-20.39-11.57c-.29,0-.58-.1-.82-.31-1.84-1.6-3.82-2.96-5.89-4.06-.61-.32-.84-1.08-.52-1.69.32-.61,1.08-.84,1.69-.52,2.24,1.19,4.38,2.66,6.36,4.38.52.45.58,1.24.12,1.76-.25.28-.6.43-.94.43Zm-35.13-5.9c-.54,0-1.03-.35-1.2-.89-.2-.66.18-1.36.84-1.56,2.5-.75,5.01-1.31,7.45-1.66.68-.1,1.32.38,1.42,1.06.1.68-.38,1.32-1.06,1.42-2.32.33-4.71.87-7.09,1.58-.12.04-.24.05-.36.05Zm22.07-1c-.1,0-.21-.01-.31-.04-2.26-.58-4.65-.92-7.1-1.01-.69-.02-1.23-.6-1.2-1.29.02-.69.59-1.23,1.29-1.2,2.63.1,5.2.46,7.63,1.09.67.17,1.07.85.9,1.52-.15.56-.65.94-1.21.94Z"/>
      <path class="cls-1" d="m144.35,234.58c-.62,0-1.16-.46-1.24-1.1-.08-.69.4-1.31,1.09-1.39,1.2-.15,2.45-.32,3.74-.52.68-.11,1.32.36,1.43,1.04.11.68-.36,1.32-1.04,1.43-1.32.2-2.59.38-3.82.53-.05,0-.1,0-.15,0Z"/>
    </g>
  </g>
  <g>
    <g>
      <path class="cls-1" d="m542.57,253.21c-.3,0-.6-.14-.8-.39l-57.59-75.43-25.97,20.49c-.43.34-1.06.27-1.4-.17-.34-.43-.27-1.06.17-1.4l26.77-21.12c.21-.17.48-.24.74-.21.27.03.51.17.67.39l58.2,76.24c.33.44.25,1.07-.19,1.4-.18.14-.39.21-.61.21Z"/>
      <path class="cls-1" d="m542.57,253.21c-.07,0-.14,0-.21-.02l-116.41-25.5c-.36-.08-.64-.35-.75-.7-.1-.35,0-.73.25-.99l20.71-20.64c.39-.39,1.02-.39,1.41,0,.39.39.39,1.02,0,1.41l-19.42,19.34,114.62,25.11c.54.12.88.65.76,1.19-.1.47-.52.79-.98.79Z"/>
      <path class="cls-1" d="m452.69,225.06c-.42,0-.81-.27-.95-.69l-5.82-17.99c-.12-.38,0-.8.29-1.06.3-.26.73-.32,1.09-.15l8.36,4.03c.5.24.71.84.47,1.34-.24.5-.83.71-1.33.47l-6.25-3.02,5.1,15.77c.17.53-.12,1.09-.64,1.26-.1.03-.21.05-.31.05Z"/>
      <path class="cls-1" d="m542.57,253.21c-.1,0-.2-.01-.3-.05l-89.88-28.15c-.48-.15-.78-.64-.68-1.13l4.91-26.96c.06-.33.28-.61.59-.74.31-.13.66-.1.94.08l84.97,55.12c.42.27.57.81.36,1.26-.17.36-.53.57-.91.57Zm-88.74-29.84l82.06,25.7-77.58-50.32-4.48,24.62Z"/>
    </g>
    <g>
      <path class="cls-1" d="m297.97,195.68c-.41,0-.81-.2-1.05-.56-1.37-2.09-1.91-3.54-1.94-3.6-.24-.65.09-1.37.74-1.61.64-.24,1.37.09,1.6.74,0,.01.48,1.27,1.68,3.1.38.58.22,1.35-.36,1.73-.21.14-.45.21-.68.21Z"/>
      <path class="cls-1" d="m333.32,211.6c-.51,0-1.03,0-1.56-.02-.69-.02-1.23-.59-1.22-1.28.02-.69.6-1.24,1.28-1.22,2.64.07,5.15-.05,7.56-.35.68-.09,1.31.4,1.4,1.09.09.69-.4,1.31-1.08,1.4-2.06.26-4.2.39-6.38.39Zm-9.26-.72c-.07,0-.13,0-.2-.02-2.71-.43-5.31-1.04-7.75-1.84-.66-.21-1.02-.92-.8-1.58.21-.66.91-1.02,1.58-.8,2.31.75,4.79,1.34,7.36,1.74.68.11,1.15.75,1.04,1.43-.1.62-.63,1.06-1.23,1.06Zm23.06-1.26c-.54,0-1.03-.35-1.2-.89-.2-.66.17-1.36.83-1.56,2.31-.7,4.62-1.6,7.05-2.75.62-.3,1.37-.03,1.67.6.29.62.03,1.37-.59,1.66-2.55,1.21-4.97,2.15-7.4,2.89-.12.04-.24.05-.36.05Zm-37.74-3.6c-.21,0-.41-.05-.61-.16-2.39-1.33-4.6-2.89-6.56-4.64-.51-.46-.56-1.25-.1-1.77.46-.52,1.25-.56,1.76-.1,1.82,1.63,3.87,3.08,6.1,4.32.6.34.82,1.1.49,1.7-.23.41-.65.64-1.09.64Zm51.82-2.87c-.43,0-.85-.22-1.08-.62-.35-.6-.14-1.36.46-1.71,1.19-.69,2.37-1.39,3.56-2.09,1.03-.61,2.08-1.23,3.13-1.85.6-.35,1.36-.15,1.71.45.35.6.15,1.36-.45,1.71-1.05.61-2.09,1.23-3.12,1.84-1.2.71-2.39,1.42-3.58,2.11-.2.11-.41.17-.62.17Zm13.51-7.66c-.46,0-.9-.25-1.12-.69-.31-.62-.06-1.37.56-1.68,2.48-1.24,4.85-2.27,7.24-3.15.65-.24,1.37.09,1.61.74.24.65-.09,1.37-.74,1.61-2.3.85-4.59,1.85-6.99,3.05-.18.09-.37.13-.56.13Zm52.33-1.18c-.19,0-.38-.04-.57-.14-2.25-1.15-4.61-2.15-6.99-2.96-.65-.22-1-.93-.78-1.59.22-.65.93-1,1.59-.78,2.5.85,4.96,1.9,7.32,3.1.61.31.86,1.07.54,1.68-.22.43-.66.68-1.11.68Zm-37.79-4.18c-.57,0-1.08-.39-1.21-.96-.16-.67.25-1.35.93-1.51,2.02-.48,4.12-.88,6.24-1.18.52-.07,1.04-.14,1.55-.2.67-.08,1.3.41,1.38,1.1.08.69-.41,1.31-1.1,1.38-.49.06-.99.12-1.48.19-2.05.29-4.07.67-6.01,1.13-.1.02-.19.03-.29.03Zm23.13-.82c-.08,0-.15,0-.23-.02-2.48-.46-5.02-.73-7.54-.82-.69-.02-1.23-.6-1.21-1.29.02-.69.59-1.25,1.29-1.21,2.64.09,5.3.38,7.91.86.68.12,1.13.78,1,1.46-.11.6-.64,1.02-1.23,1.02Z"/>
      <path class="cls-1" d="m436.76,200.77c-.31,0-.61-.11-.86-.34,0,0-1.01-.94-2.85-2.27-.56-.4-.69-1.18-.28-1.74.4-.56,1.18-.69,1.75-.28,1.99,1.43,3.06,2.43,3.1,2.48.5.47.53,1.26.05,1.77-.25.26-.58.39-.91.39Z"/>
    </g>
  </g>
  <g>
    <g>
      <path class="cls-1" d="m156.12,339.98c-.42,0-.81-.26-.95-.68l-2.73-8.1c-.09-.28-.06-.58.09-.83.15-.25.4-.42.68-.48l120.57-21.9c.54-.1,1.06.26,1.16.81.1.54-.26,1.06-.81,1.16l-119.43,21.69,2.36,7c.18.52-.1,1.09-.63,1.27-.11.04-.21.05-.32.05Z"/>
      <path class="cls-1" d="m165.56,367.98c-.34,0-.67-.17-.85-.48l-3.67-6c-.29-.47-.14-1.09.33-1.38.47-.29,1.09-.14,1.37.33l3.18,5.2,107.57-57.55c.49-.26,1.09-.08,1.35.41.26.49.08,1.09-.41,1.35l-108.4,58c-.15.08-.31.12-.47.12Z"/>
      <path class="cls-1" d="m142.11,371.15c-.23,0-.45-.08-.64-.23-.3-.25-.43-.64-.33-1.01l7.37-29.49c.09-.36.37-.64.72-.73l124.48-31.68c.51-.13,1.02.15,1.19.63.17.49-.05,1.02-.52,1.24l-131.85,61.17c-.13.06-.28.09-.42.09Zm8.2-29.67l-6.72,26.88,120.19-55.76-113.47,28.88Z"/>
      <path class="cls-1" d="m153.39,331.88c-.33,0-.65-.17-.84-.45-.22-.34-.22-.77,0-1.11l15.79-23.36c.19-.27.5-.44.83-.44.01,0,104.79,1.46,104.79,1.46.51,0,.94.4.98.92.04.51-.31.97-.82,1.07l-120.57,21.9c-.06.01-.12.02-.18.02Zm16.32-23.35l-14.16,20.94,108.1-19.63-93.94-1.31Z"/>
    </g>
    <g>
      <path class="cls-1" d="m24.88,324.3c-.49,0-.95-.29-1.15-.76-.27-.64.03-1.37.66-1.64.05-.02,1.36-.58,3.6-1.41.64-.24,1.37.09,1.61.73.24.65-.09,1.37-.73,1.61-2.17.81-3.48,1.36-3.49,1.37-.16.07-.33.1-.49.1Z"/>
      <path class="cls-1" d="m98.19,390.81c-2.9-.07-5.57-.4-7.97-.97-.67-.16-1.08-.84-.92-1.51.16-.67.83-1.09,1.51-.92,2.23.54,4.72.84,7.41.9.69.02,1.24.59,1.22,1.28-.02.68-.57,1.22-1.25,1.22Zm7.73-.38c-.63,0-1.17-.47-1.24-1.11-.08-.69.42-1.3,1.1-1.38,2.38-.27,4.91-.68,7.53-1.23.67-.13,1.34.29,1.48.97.14.68-.29,1.34-.97,1.48-2.7.57-5.31.99-7.76,1.27-.05,0-.1,0-.14,0Zm15.17-3.12c-.55,0-1.05-.36-1.2-.91-.19-.66.2-1.36.86-1.54,2.37-.67,4.83-1.44,7.33-2.3.65-.22,1.36.12,1.59.78.22.65-.12,1.36-.78,1.59-2.54.87-5.05,1.66-7.46,2.34-.11.03-.23.05-.34.05Zm-37.72-.38c-.23,0-.46-.06-.67-.19l-.19-.12c-2.45-1.6-4.37-3.49-5.72-5.61-.37-.58-.2-1.36.39-1.73.58-.37,1.36-.2,1.73.39,1.17,1.84,2.8,3.43,4.97,4.85l.16.1c.58.37.76,1.14.39,1.72-.24.38-.64.58-1.06.58Zm52.39-4.62c-.5,0-.97-.3-1.16-.79-.25-.64.06-1.37.71-1.62,2.36-.93,4.75-1.92,7.11-2.96.63-.27,1.37,0,1.65.64.28.63,0,1.37-.64,1.65-2.39,1.05-4.81,2.06-7.2,3-.15.06-.31.09-.46.09Zm-60.23-8.04c-.65,0-1.2-.5-1.25-1.16-.04-.56-.06-1.13-.06-1.7,0-1.92.22-3.99.68-6.33.13-.68.79-1.12,1.47-.99.68.13,1.12.79.99,1.46-.42,2.18-.63,4.1-.63,5.86,0,.51.02,1.02.06,1.52.05.69-.47,1.29-1.15,1.34-.03,0-.06,0-.09,0Zm2.54-15.2c-.12,0-.24-.02-.36-.05-.66-.2-1.03-.9-.83-1.56.46-1.52.96-3.06,1.45-4.61.3-.93.6-1.86.89-2.79.21-.66.91-1.02,1.57-.82.66.21,1.02.91.82,1.57-.29.94-.6,1.88-.89,2.81-.49,1.54-.98,3.06-1.44,4.57-.16.54-.66.89-1.2.89Zm4.46-14.84c-.1,0-.2-.01-.3-.04-.67-.16-1.08-.84-.92-1.51.67-2.77,1.08-5.2,1.24-7.43.05-.69.66-1.22,1.34-1.15.69.05,1.21.65,1.15,1.34-.18,2.37-.6,4.93-1.31,7.84-.14.57-.65.96-1.21.96Zm.8-15.34c-.57,0-1.09-.39-1.22-.97-.57-2.51-1.6-4.65-3.06-6.37-.45-.53-.38-1.32.15-1.76.53-.45,1.31-.38,1.76.14,1.72,2.03,2.93,4.54,3.59,7.44.15.67-.27,1.34-.94,1.5-.09.02-.19.03-.28.03Zm-47.59-8.49c-.53,0-1.03-.34-1.19-.88-.21-.66.16-1.36.82-1.57,2.55-.8,5.08-1.51,7.53-2.12.67-.17,1.35.24,1.52.91.17.67-.24,1.35-.91,1.51-2.4.6-4.89,1.3-7.39,2.08-.12.04-.25.06-.37.06Zm38-2.82c-.16,0-.32-.03-.47-.09-2.05-.83-4.46-1.39-7.17-1.66-.69-.07-1.19-.68-1.12-1.37.07-.69.68-1.19,1.37-1.12,2.95.29,5.6.91,7.87,1.83.64.26.95.99.69,1.63-.2.48-.67.78-1.16.78Zm-22.96-.88c-.6,0-1.13-.43-1.23-1.04-.12-.68.34-1.33,1.02-1.44,2.74-.47,5.37-.79,7.82-.95.67-.06,1.28.48,1.33,1.17.05.69-.48,1.28-1.17,1.33-2.36.16-4.9.47-7.56.92-.07.01-.14.02-.21.02Z"/>
      <path class="cls-1" d="m150,376.06c-.46,0-.91-.26-1.12-.7-.3-.62-.05-1.37.57-1.67,2.11-1.03,3.34-1.69,3.35-1.7.61-.33,1.37-.1,1.69.51.33.61.1,1.37-.51,1.69-.05.03-1.28.69-3.44,1.74-.18.09-.36.13-.55.13Z"/>
    </g>
  </g>
  <g>
    <g>
      <path class="cls-1" d="m460.31,381.32c-.43,0-.82-.28-.96-.71l-8.91-29.09c-.16-.53.13-1.09.66-1.25.53-.17,1.09.14,1.25.66l8.91,29.08c.16.53-.13,1.09-.66,1.25-.1.03-.2.04-.29.04Z"/>
      <path class="cls-1" d="m460.31,381.32c-.15,0-.3-.03-.43-.1-.35-.17-.57-.52-.57-.9l.08-25.03c0-.55.45-1,1-1,.56,0,1,.45,1,1l-.08,22.94,18.99-15.17c.43-.35,1.06-.27,1.41.16.34.43.27,1.06-.16,1.41l-20.62,16.48c-.18.14-.4.22-.62.22Z"/>
      <path class="cls-1" d="m451.41,352.24c-.12,0-.24-.02-.35-.06l-30.4-11.51c-.41-.15-.67-.56-.64-.99.02-.44.33-.8.75-.91l132.52-33.89c.51-.13,1.02.15,1.19.64.17.49-.06,1.03-.54,1.24l-102.12,45.4c-.13.06-.27.09-.41.09Zm-27.09-12.32l27.06,10.24,90.88-40.41-117.94,30.16Z"/>
      <path class="cls-1" d="m501.42,373.38c-.13,0-.26-.03-.38-.08l-41.03-17.09c-.36-.15-.6-.49-.61-.88-.02-.39.19-.75.53-.93l93.13-49.45c.42-.22.93-.12,1.24.24.3.36.31.89.02,1.26l-52.1,66.54c-.19.25-.49.38-.79.38Zm-38.69-18.2l38.37,15.98,48.73-62.23-87.1,46.25Z"/>
    </g>
    <g>
      <path class="cls-1" d="m295.22,359.12c-.44,0-.87-.24-1.1-.65-1.17-2.14-1.74-3.44-1.77-3.49-.28-.63,0-1.37.64-1.65.63-.28,1.37,0,1.65.64,0,.01.56,1.27,1.67,3.3.33.61.11,1.37-.5,1.7-.19.1-.4.15-.6.15Z"/>
      <path class="cls-1" d="m395.76,407.42c-.78,0-1.55-.01-2.31-.04-.69-.02-1.23-.6-1.21-1.29.02-.67.58-1.21,1.25-1.21,1.27.04,2.53.05,3.81.02,1.19-.03,2.4-.08,3.59-.15.7-.03,1.28.48,1.32,1.17.04.69-.48,1.28-1.17,1.32-1.23.07-2.47.13-3.69.15-.54.01-1.07.02-1.6.02Zm-9.71-.75c-.07,0-.13,0-.2-.02-2.58-.41-5.09-1-7.46-1.74-.66-.21-1.03-.91-.82-1.57.21-.66.9-1.03,1.57-.82,2.26.7,4.65,1.26,7.11,1.66.68.11,1.15.75,1.04,1.43-.1.61-.63,1.05-1.23,1.05Zm22.37-.18c-.61,0-1.15-.45-1.24-1.07-.1-.68.38-1.32,1.06-1.41,2.45-.35,4.89-.81,7.25-1.36.68-.16,1.34.26,1.5.93.16.67-.26,1.34-.93,1.5-2.43.57-4.94,1.04-7.46,1.4-.06,0-.12.01-.18.01Zm14.56-3.41c-.52,0-1.01-.33-1.19-.86-.22-.66.14-1.36.79-1.58,2.34-.77,4.65-1.66,6.88-2.64.63-.28,1.37.01,1.65.64.28.63,0,1.37-.64,1.65-2.3,1.01-4.69,1.92-7.1,2.72-.13.04-.26.06-.39.06Zm-51.15-.9c-.19,0-.38-.04-.56-.13-2.36-1.2-4.56-2.59-6.52-4.13-.1-.08-.19-.17-.26-.27-.66.08-1.34.16-2.03.23-.69.06-1.3-.43-1.37-1.12-.07-.69.43-1.3,1.12-1.37,2.58-.25,5.01-.64,7.23-1.14.67-.16,1.34.27,1.5.94.15.67-.27,1.34-.94,1.5-.69.16-1.41.3-2.13.44,1.41.98,2.93,1.88,4.53,2.7.62.31.86,1.06.55,1.68-.22.43-.66.69-1.12.69Zm-16.96-3.95c-2.57-.02-5.13-.19-7.62-.5-.68-.09-1.17-.71-1.08-1.4.09-.69.71-1.17,1.4-1.08,2.39.3,4.85.47,7.31.49.69,0,1.25.57,1.24,1.26,0,.69-.56,1.24-1.25,1.24Zm81.8-1.16c-.44,0-.86-.23-1.09-.64-.34-.6-.12-1.36.48-1.7,2.16-1.21,4.25-2.53,6.22-3.92.57-.4,1.34-.26,1.74.3.4.56.26,1.34-.3,1.74-2.04,1.44-4.21,2.81-6.44,4.06-.19.11-.4.16-.61.16Zm-96.61-.72c-.1,0-.21-.01-.31-.04-2.46-.63-4.9-1.42-7.26-2.34-.64-.25-.96-.98-.71-1.62.25-.64.98-.96,1.62-.71,2.27.89,4.61,1.65,6.97,2.25.67.17,1.07.85.9,1.52-.14.56-.65.94-1.21.94Zm36.79-1.91c-.48,0-.94-.28-1.15-.75-.28-.63.01-1.37.64-1.65,2.37-1.04,4.39-2.29,6-3.72.52-.46,1.3-.41,1.76.1.46.52.41,1.31-.1,1.76-1.81,1.6-4.05,3-6.66,4.14-.16.07-.33.1-.5.1Zm-16.62-1.51c-.37,0-.74-.16-.99-.48-1.7-2.18-2.99-4.49-3.83-6.86-.23-.65.11-1.37.76-1.6.65-.23,1.37.11,1.6.76.75,2.11,1.91,4.18,3.45,6.15.42.54.33,1.33-.22,1.75-.23.18-.5.26-.77.26Zm-34.07-2.03c-.2,0-.4-.05-.59-.15-2.2-1.19-4.39-2.54-6.49-4-.57-.39-.71-1.17-.31-1.74.39-.57,1.17-.71,1.74-.31,2.03,1.41,4.13,2.71,6.25,3.85.61.33.83,1.09.51,1.69-.23.42-.66.66-1.1.66Zm61.27-6.45c-.14,0-.29-.02-.42-.07-.65-.24-.99-.95-.75-1.6.46-1.26.69-2.58.69-3.93,0-.91-.11-1.83-.32-2.74-.16-.67.26-1.34.94-1.5.67-.16,1.34.26,1.5.94.25,1.09.38,2.2.38,3.3,0,1.63-.28,3.24-.84,4.78-.18.51-.66.83-1.18.83Zm-73.54-2.07c-.29,0-.58-.1-.82-.3-1.88-1.63-3.74-3.39-5.51-5.25-.48-.5-.46-1.29.04-1.77.5-.47,1.29-.46,1.77.04,1.72,1.8,3.51,3.51,5.33,5.08.52.45.58,1.24.13,1.76-.25.29-.6.43-.95.43Zm41.74-3.32s-.09,0-.13,0c-.69-.07-1.19-.68-1.12-1.37.28-2.76,1.26-5.29,2.9-7.51.41-.56,1.19-.67,1.75-.26.56.41.67,1.19.26,1.75-1.37,1.86-2.19,3.98-2.43,6.28-.07.64-.61,1.12-1.24,1.12Zm-52.09-7.49c-.37,0-.73-.16-.98-.47-1.57-1.97-3.08-4.03-4.49-6.13-.38-.57-.23-1.35.34-1.73.57-.38,1.35-.23,1.73.34,1.37,2.04,2.83,4.05,4.36,5.96.43.54.34,1.33-.2,1.76-.23.18-.51.27-.78.27Zm80.87-1.07c-.35,0-.69-.14-.94-.42-1.52-1.74-3.45-3.11-5.57-3.97-.64-.26-.95-.99-.69-1.63.26-.64.99-.95,1.63-.69,2.48,1.01,4.73,2.61,6.51,4.64.46.52.4,1.31-.11,1.76-.24.21-.53.31-.82.31Zm-20.46-3.14c-.44,0-.87-.24-1.1-.65-.33-.61-.11-1.37.5-1.7.5-.27,1.02-.53,1.56-.78,1.97-.89,3.99-1.44,6.01-1.62.69-.05,1.3.44,1.36,1.13.06.69-.44,1.3-1.13,1.36-1.74.16-3.5.63-5.21,1.41-.48.22-.95.45-1.39.69-.19.1-.4.15-.6.15Z"/>
      <path class="cls-1" d="m448.94,388.31c-.34,0-.68-.14-.92-.41-.47-.51-.43-1.3.08-1.77,1.7-1.56,2.57-2.57,2.58-2.58.45-.52,1.24-.59,1.76-.14.53.45.59,1.24.14,1.76-.04.05-.96,1.13-2.8,2.81-.24.22-.54.33-.84.33Z"/>
    </g>
  </g>
  <g>
    <g>
      <path class="cls-1" d="m632.86,91.85s-.05,0-.08,0c-.55-.04-.96-.53-.92-1.08l.65-8c.04-.55.53-.96,1.08-.92.55.04.96.53.92,1.08l-.65,8c-.04.52-.48.92-1,.92Z"/>
      <path class="cls-1" d="m629.62,122.77c-.48,0-.9-.35-.98-.83l-2.28-12.95c-.09-.54.27-1.06.81-1.16.54-.1,1.06.27,1.16.81l2.12,12.08,104.4-5.41c.53-.04,1.02.39,1.05.95.03.55-.4,1.02-.95,1.05l-105.28,5.45s-.04,0-.05,0Z"/>
      <path class="cls-1" d="m734.9,117.32s-.05,0-.07,0l-141-9.83c-.44-.03-.8-.34-.9-.76-.1-.42.08-.87.46-1.09l29.9-17.9c.23-.14.5-.18.76-.11l111.03,27.72c.48.07.86.49.86.99,0,.55-.45,1-1.02,1Zm-137.76-11.61l126.46,8.82-99.65-24.88-26.81,16.06Z"/>
      <path class="cls-1" d="m734.9,117.32c-.1,0-.21-.02-.31-.05l-101.39-33.47c-.37-.12-.64-.45-.68-.85-.04-.39.15-.77.49-.97l21.6-12.56c.31-.18.69-.18,1,0l79.68,45.97c.37.15.63.51.63.93,0,.55-.45,1-1.02,1Zm-98.97-34.73l90.02,29.72-70.85-40.88-19.18,11.16Z"/>
    </g>
    <g>
      <path class="cls-1" d="m532.22,52.77c-.52,0-1-.33-1.18-.84-.23-.65.12-1.36.77-1.59,0,0,1.33-.46,3.63-1.21.66-.21,1.36.14,1.58.8.21.66-.14,1.36-.8,1.58-2.27.74-3.59,1.2-3.59,1.2-.14.05-.27.07-.41.07Z"/>
      <path class="cls-1" d="m601.7,89.4s-.04,0-.06,0c-2.61-.13-5.09-.38-7.37-.73-.68-.11-1.15-.75-1.04-1.43.11-.68.75-1.14,1.43-1.04,2.19.34,4.58.58,7.11.71.69.03,1.22.62,1.19,1.31-.03.67-.58,1.19-1.25,1.19Zm-14.31-2.4c-.13,0-.27-.02-.4-.07-2.71-.92-5-2.1-6.81-3.5-.54-.42-.64-1.21-.22-1.75.42-.54,1.21-.64,1.75-.22,1.58,1.23,3.63,2.27,6.08,3.11.65.22,1,.93.78,1.59-.18.52-.66.85-1.18.85Zm-10.63-9.1c-.54,0-1.04-.36-1.2-.9-.24-.83-.36-1.68-.36-2.52,0-1.76.53-3.58,1.58-5.41.34-.6,1.11-.8,1.71-.46.6.34.8,1.11.46,1.71-.84,1.46-1.25,2.82-1.25,4.16,0,.61.09,1.22.26,1.83.19.66-.19,1.36-.85,1.55-.12.03-.23.05-.35.05Zm5.79-12.49c-.34,0-.67-.14-.92-.4-.47-.51-.44-1.3.07-1.77,1.9-1.76,4.05-3.44,5.7-4.71.55-.42,1.33-.31,1.75.23.42.55.32,1.33-.23,1.75-1.61,1.23-3.7,2.87-5.53,4.56-.24.22-.54.33-.85.33Zm11.42-9.03c-.37,0-.74-.17-.99-.48-.42-.55-.32-1.33.22-1.75,2.44-1.89,4.11-3.32,5.4-4.63.49-.49,1.28-.5,1.77-.01.49.48.5,1.28.01,1.77-1.37,1.39-3.11,2.89-5.65,4.85-.23.18-.5.26-.76.26Zm-51.22-7.02c-.53,0-1.03-.34-1.19-.88-.2-.66.17-1.36.82-1.56,2.12-.66,4.47-1.37,6.99-2.11.66-.19,1.36.19,1.55.85.19.66-.19,1.36-.85,1.55-2.5.73-4.84,1.44-6.95,2.1-.12.04-.25.06-.37.06Zm60.36-3.85s-.09,0-.14,0c-.69-.08-1.18-.69-1.1-1.38.02-.14.02-.28.02-.42,0-1-.38-1.96-1.16-2.93-.36-.44-.91-.83-1.65-1.14-.64-.27-.94-1-.67-1.64.27-.64,1-.94,1.64-.67,1.13.47,2.01,1.1,2.64,1.88,1.14,1.42,1.71,2.93,1.71,4.5,0,.23-.01.46-.04.69-.07.64-.61,1.11-1.24,1.11Zm-46.4-.23c-.55,0-1.05-.36-1.21-.92-.18-.67.21-1.35.88-1.54,2.43-.67,4.8-1.29,7.06-1.86.67-.16,1.35.24,1.52.91.17.67-.24,1.35-.91,1.52-2.24.56-4.6,1.18-7.01,1.84-.11.03-.22.04-.33.04Zm14.12-3.53c-.57,0-1.09-.4-1.22-.98-.15-.67.28-1.34.95-1.49,2.53-.56,4.94-1.05,7.18-1.46.67-.13,1.33.33,1.45,1.01.12.68-.33,1.33-1.01,1.45-2.21.4-4.59.89-7.08,1.44-.09.02-.18.03-.27.03Zm14.32-2.56c-.62,0-1.16-.47-1.24-1.1-.08-.69.41-1.31,1.09-1.39,2.77-.33,5.26-.5,7.4-.51.69,0,1.25.56,1.25,1.25,0,.69-.56,1.25-1.25,1.25-2.04,0-4.43.17-7.11.49-.05,0-.1,0-.15,0Z"/>
      <path class="cls-1" d="m608.99,89.46c-.67,0-1.23-.53-1.25-1.21-.02-.69.52-1.27,1.21-1.29,2.27-.08,3.71-.21,3.72-.22.69-.07,1.3.44,1.37,1.12s-.44,1.3-1.12,1.36c-.06,0-1.53.15-3.92.23Z"/>
    </g>
  </g>
  <g>
    <g>
      <path class="cls-1" d="m665.56,224.22s-.06,0-.1,0c-.55-.05-.95-.54-.9-1.09l.49-5.12c.05-.55.52-.95,1.09-.9.55.05.95.54.9,1.09l-.49,5.12c-.05.52-.48.9-.99.9Z"/>
      <path class="cls-1" d="m663.48,246.08c-.37,0-.72-.21-.89-.55l-6.28-12.34c-.25-.49-.05-1.09.44-1.34.49-.25,1.09-.05,1.34.44l5.91,11.61,109.39-30.6c.53-.15,1.08.16,1.23.69.15.53-.16,1.08-.69,1.23l-110.18,30.82c-.09.03-.18.04-.27.04Z"/>
      <path class="cls-1" d="m666.05,219.1c-.48,0-.89-.34-.98-.81-.09-.48.18-.96.65-1.13l21.63-7.68c.12-.04.24-.06.38-.06l85.97,3.84c.54.02.96.47.96,1,0,.54-.43.98-.96,1,0,0-107.6,3.84-107.64,3.84Zm21.78-7.67l-15.33,5.44,76.24-2.72-60.91-2.72Z"/>
      <path class="cls-1" d="m626.11,238.67c-.43,0-.82-.28-.95-.69-.15-.47.06-.98.5-1.2l26.78-13.41c.11-.06.24-.09.36-.1l120.77-10.01c.55-.04,1.01.34,1.08.88.06.53-.31,1.02-.84,1.11l-147.54,23.41c-.05,0-.1.01-.16.01Zm27.05-13.43l-20.82,10.43,114.73-18.21-93.91,7.78Z"/>
    </g>
    <g>
      <path class="cls-1" d="m571.93,153.55c-.39,0-.77-.18-1.01-.51-.41-.56-.28-1.34.28-1.75,1.97-1.44,3.33-2.12,3.39-2.15.62-.31,1.37-.06,1.67.56.31.62.06,1.37-.56,1.68-.01,0-1.25.63-3.04,1.93-.22.16-.48.24-.73.24Z"/>
      <path class="cls-1" d="m639.26,251.93c-1.42,0-2.85-.03-4.25-.09-.69-.03-1.23-.61-1.2-1.3.03-.69.62-1.23,1.3-1.2,2.53.1,5.22.1,7.56.03.65-.03,1.27.52,1.29,1.21.02.69-.52,1.27-1.21,1.29-1.11.04-2.27.06-3.5.06Zm-11.83-.69s-.1,0-.15,0c-2.6-.31-5.17-.73-7.66-1.24-.68-.14-1.11-.8-.97-1.48.14-.68.8-1.12,1.48-.97,2.42.5,4.92.91,7.45,1.21.69.08,1.18.7,1.09,1.39-.08.64-.62,1.1-1.24,1.1Zm-14.97-3.12c-.12,0-.25-.02-.37-.06-2.51-.77-4.97-1.67-7.31-2.67-.63-.27-.93-1.01-.66-1.64.27-.63,1.01-.93,1.64-.66,2.26.97,4.63,1.84,7.06,2.58.66.2,1.03.9.83,1.56-.17.54-.66.88-1.19.88Zm-14.03-6.04c-.21,0-.43-.05-.62-.17-2.27-1.3-4.46-2.75-6.51-4.3-.55-.42-.66-1.2-.25-1.75.42-.55,1.2-.66,1.75-.25,1.97,1.48,4.07,2.87,6.25,4.12.6.34.8,1.11.46,1.71-.23.4-.65.63-1.08.63Zm-12.17-9.2c-.32,0-.63-.12-.88-.36-1.84-1.81-3.59-3.77-5.2-5.82-.43-.54-.33-1.33.21-1.76.54-.43,1.33-.33,1.75.21,1.54,1.97,3.22,3.84,4.99,5.58.49.48.5,1.27.02,1.77-.24.25-.57.37-.89.37Zm-9.39-12.02c-.44,0-.87-.23-1.1-.65-1.31-2.39-2.25-4.9-2.82-7.46-.15-.67.28-1.34.95-1.49.68-.15,1.34.28,1.49.95.51,2.33,1.38,4.62,2.57,6.8.33.61.11,1.37-.5,1.7-.19.1-.4.15-.6.15Zm-1.75-14.2c-.45,0-.85-.24-1.07-.6-.15.05-.32.08-.5.06-.69-.05-1.2-.65-1.15-1.34.2-2.61.77-5.23,1.7-7.78.24-.65.95-.99,1.6-.75.65.24.98.95.75,1.6-.75,2.08-1.25,4.2-1.48,6.32.03,0,.06,0,.09,0,2.28-.11,4.71-.54,7.22-1.29.66-.2,1.36.18,1.56.84.2.66-.18,1.36-.84,1.55-2.7.81-5.33,1.27-7.82,1.39-.02,0-.04,0-.06,0Zm-7.54-.99c-.14,0-.28-.02-.42-.07-2.71-.96-4.97-2.55-6.73-4.73-.43-.54-.35-1.32.19-1.76.54-.44,1.32-.35,1.76.19,1.46,1.81,3.36,3.14,5.62,3.95.65.23.99.95.76,1.6-.18.51-.66.83-1.18.83Zm22.15-3.22c-.45,0-.89-.25-1.11-.68-.31-.61-.07-1.37.54-1.68,2.28-1.16,4.39-2.5,6.27-3.96.55-.42,1.33-.32,1.75.22.42.55.32,1.33-.22,1.75-2.01,1.56-4.25,2.97-6.66,4.21-.18.09-.38.14-.57.14Zm-31.59-7.97c-.56,0-1.07-.38-1.21-.94-.1-.41-.2-.82-.28-1.25-.44-2.21-.75-4.4-.91-6.52-.05-.69.47-1.29,1.16-1.34.7-.05,1.29.47,1.34,1.15.15,2.01.44,4.1.86,6.21.08.39.16.76.26,1.13.17.67-.24,1.35-.91,1.52-.1.03-.21.04-.31.04Zm43.42-1.54c-.25,0-.5-.07-.72-.23-.57-.4-.7-1.18-.3-1.74,1.2-1.71,1.84-3.35,1.84-4.74,0-.45-.07-.89-.2-1.3-.22-.66.14-1.36.8-1.58.66-.22,1.36.14,1.58.8.22.66.33,1.36.33,2.08,0,1.93-.77,4.01-2.29,6.18-.24.35-.63.53-1.02.53Zm-22.81-1.08c-.24,0-.48-.07-.7-.21-.57-.39-.72-1.16-.33-1.74,1.52-2.25,3.28-4.26,5.23-5.99.52-.46,1.31-.41,1.76.11.46.52.41,1.31-.11,1.76-1.79,1.59-3.41,3.44-4.82,5.51-.24.36-.63.55-1.04.55Zm11.44-9.85c-.49,0-.96-.29-1.16-.78-.26-.64.04-1.37.68-1.63,2.91-1.19,5.74-1.51,8.24-.92.67.16,1.09.83.93,1.5-.16.67-.83,1.09-1.5.93-1.99-.46-4.3-.19-6.72.8-.15.06-.32.09-.47.09Zm-33.11-2.73s-.09,0-.13,0c-.69-.07-1.18-.69-1.11-1.37.28-2.66.82-5.26,1.61-7.73.21-.66.91-1.02,1.57-.81.66.21,1.02.91.81,1.57-.74,2.3-1.24,4.74-1.51,7.23-.07.64-.61,1.12-1.24,1.12Zm4.65-14.46c-.21,0-.43-.05-.63-.17-.6-.35-.8-1.11-.45-1.71,1.31-2.26,2.88-4.41,4.66-6.38.46-.51,1.25-.55,1.77-.09.51.46.55,1.25.09,1.77-1.66,1.84-3.13,3.84-4.35,5.95-.23.4-.65.62-1.08.62Z"/>
      <path class="cls-1" d="m650.44,251.31c-.63,0-1.17-.47-1.24-1.11-.08-.69.41-1.31,1.1-1.38,2.32-.26,3.66-.52,3.68-.52.68-.13,1.33.32,1.46,1,.13.68-.32,1.33-.99,1.46-.06.01-1.44.27-3.86.55-.05,0-.1,0-.14,0Z"/>
    </g>
  </g>
  <g>
    <g>
      <path class="cls-1" d="m923.55,124.1s-.06,0-.09,0c-.33-.03-.62-.23-.78-.52l-17.8-32.79c-.12-.23-.15-.5-.08-.75l3.45-12.34-12.94-8.23c-.18-.11-.32-.28-.4-.48l-12.7-32.52c-.12-.31-.08-.67.12-.94.2-.27.53-.43.85-.42l108.22,4.49c.38.02.72.24.87.59.15.35.1.75-.14,1.04l-67.81,82.5c-.19.23-.47.37-.77.37Zm-16.72-33.91l16.89,31.13,65.59-79.81-104.69-4.34,12.02,30.79,13.29,8.45c.37.24.55.69.43,1.11l-3.54,12.67Z"/>
      <path class="cls-1" d="m905.76,91.31c-.34,0-.68-.18-.87-.5-.28-.48-.12-1.09.36-1.37l69.23-40.21-64.67,28.93c-.51.23-1.1,0-1.32-.5-.23-.5,0-1.1.5-1.32l81.96-36.66c.49-.22,1.06-.02,1.3.46.24.47.07,1.05-.39,1.32l-85.61,49.72c-.16.09-.33.14-.5.14Z"/>
      <path class="cls-1" d="m895.84,69.63c-.43,0-.83-.28-.96-.72-.16-.53.15-1.09.68-1.24l95.53-28.04c.53-.16,1.09.15,1.24.68.16.53-.15,1.09-.68,1.24l-95.53,28.04c-.09.03-.19.04-.28.04Z"/>
    </g>
    <g>
      <path class="cls-1" d="m775.73,116.4c-2.43-.05-3.82-.13-3.88-.14-.69-.04-1.22-.63-1.18-1.32.04-.69.65-1.21,1.32-1.18.01,0,1.4.08,3.76.13.69.02,1.24.59,1.22,1.28-.02.68-.57,1.22-1.25,1.22Z"/>
      <path class="cls-1" d="m783.46,116.42c-.68,0-1.24-.55-1.25-1.23-.01-.69.54-1.26,1.23-1.27,2.58-.04,5.17-.13,7.69-.27.71-.05,1.28.49,1.32,1.18.04.69-.49,1.28-1.18,1.32-2.55.14-5.17.23-7.8.27Zm15.45-.84c-.64,0-1.18-.48-1.24-1.13-.07-.69.44-1.3,1.13-1.36,2.61-.25,5.18-.55,7.62-.91.68-.1,1.32.38,1.42,1.06.1.68-.37,1.32-1.06,1.42-2.48.36-5.09.67-7.74.92-.04,0-.08,0-.12,0Zm15.31-2.24c-.58,0-1.1-.41-1.22-1-.14-.68.29-1.34.97-1.48,2.61-.54,5.1-1.15,7.42-1.82.66-.19,1.36.19,1.55.85.19.66-.19,1.36-.85,1.55-2.37.69-4.93,1.32-7.61,1.87-.08.02-.17.03-.25.03Zm14.81-4.38c-.49,0-.96-.29-1.16-.77-.26-.64.04-1.37.68-1.63,2.48-1.02,4.74-2.16,6.72-3.38.59-.36,1.36-.18,1.72.41.36.59.18,1.36-.41,1.72-2.09,1.29-4.47,2.49-7.08,3.56-.16.06-.32.1-.48.1Zm12.95-8.24c-.31,0-.63-.12-.87-.35-.42-.41-.49-1.05-.21-1.53-2.57-.15-5.05-.43-7.39-.84-.68-.12-1.13-.77-1.02-1.45.12-.68.77-1.13,1.45-1.02,2.37.42,4.91.7,7.52.83.45.02.83.28,1.03.65.16-.19.31-.39.46-.59.93-1.25,1.77-2.52,2.48-3.79.34-.6,1.1-.82,1.7-.48.6.34.82,1.1.48,1.7-.77,1.36-1.66,2.73-2.66,4.06-.63.83-1.32,1.65-2.08,2.42-.25.25-.57.38-.9.38Zm7.15-1.85c-.66,0-1.22-.52-1.25-1.19-.03-.69.5-1.27,1.19-1.31.87-.04,1.76-.09,2.67-.16,1.58-.12,3.24-.3,4.91-.54.68-.1,1.32.38,1.41,1.06.1.68-.38,1.32-1.06,1.41-1.73.25-3.44.44-5.08.56-.93.07-1.84.13-2.74.17-.02,0-.04,0-.06,0Zm15.29-2.15c-.57,0-1.08-.39-1.22-.97-.16-.67.26-1.34.94-1.5,2.39-.55,4.88-1.22,7.39-1.98.66-.2,1.36.17,1.56.83.2.66-.17,1.36-.83,1.56-2.56.78-5.1,1.46-7.55,2.03-.09.02-.19.03-.28.03Zm-38.17-.61c-.14,0-.27-.02-.41-.07-2.63-.91-5.07-2.04-7.24-3.35-.59-.36-.78-1.13-.42-1.72.36-.59,1.13-.78,1.72-.42,2.02,1.22,4.29,2.27,6.76,3.13.65.23,1,.94.77,1.59-.18.52-.66.84-1.18.84Zm52.97-3.86c-.51,0-.99-.31-1.17-.82-.24-.65.09-1.37.74-1.6,2.37-.87,4.77-1.83,7.12-2.84.64-.27,1.37.02,1.64.66.27.63-.02,1.37-.66,1.64-2.4,1.03-4.84,2-7.25,2.88-.14.05-.29.08-.43.08Zm-65.96-4.22c-.34,0-.67-.14-.92-.4-1.93-2.1-3.39-4.41-4.36-6.87-.25-.64.06-1.37.71-1.62.64-.25,1.37.06,1.62.71.86,2.18,2.16,4.23,3.88,6.1.47.51.43,1.3-.08,1.77-.24.22-.54.33-.85.33Zm36.12-.69c-.1,0-.19-.01-.29-.03-.67-.16-1.08-.84-.92-1.51.41-1.7.61-3.42.61-5.1,0-.72-.04-1.44-.11-2.15-.07-.69.43-1.3,1.12-1.37.68-.08,1.3.43,1.37,1.11.08.8.12,1.61.12,2.41,0,1.88-.23,3.79-.68,5.69-.14.57-.65.96-1.21.96Zm-41.45-13.37s-.06,0-.08,0c-.69-.05-1.21-.64-1.16-1.33.19-2.8,1.01-5.44,2.45-7.87.35-.59,1.12-.79,1.71-.44.59.35.79,1.12.44,1.71-1.23,2.08-1.94,4.35-2.1,6.76-.04.66-.59,1.17-1.25,1.17Zm39.87-1.7c-.47,0-.91-.26-1.13-.71-1.04-2.17-2.44-4.19-4.17-6.01-.47-.5-.45-1.29.05-1.77.5-.48,1.29-.45,1.77.05,1.9,2.01,3.45,4.24,4.6,6.65.3.62.04,1.37-.59,1.67-.17.08-.36.12-.54.12Zm-10.43-11.11c-.21,0-.43-.05-.63-.17-2.18-1.27-4.47-2.17-6.81-2.68-.67-.15-1.1-.81-.95-1.49.15-.67.82-1.1,1.49-.95,2.58.57,5.12,1.56,7.53,2.96.6.35.8,1.11.46,1.71-.23.4-.65.62-1.08.62Zm-21.91-.09c-.4,0-.78-.19-1.03-.54-.39-.57-.25-1.35.31-1.74.72-.5,1.5-.98,2.3-1.4,1.63-.86,3.4-1.46,5.27-1.78.67-.11,1.33.34,1.44,1.02.12.68-.34,1.33-1.02,1.44-1.61.28-3.13.79-4.52,1.52-.71.38-1.4.79-2.04,1.24-.22.15-.47.22-.71.22Z"/>
      <path class="cls-1" d="m893.47,86.14c-.46,0-.91-.26-1.12-.7-.31-.62-.05-1.37.57-1.67,2.1-1.04,3.32-1.71,3.33-1.71.6-.33,1.36-.12,1.7.49.33.6.12,1.36-.49,1.7-.05.03-1.28.71-3.44,1.77-.18.09-.37.13-.55.13Z"/>
    </g>
  </g>
  <g>
    <g>
      <path class="cls-1" d="m890.93,223.49c-.06,0-.13,0-.19-.02-.54-.1-.9-.63-.79-1.17l5.89-30.6c.11-.54.63-.9,1.17-.79.54.1.9.63.79,1.17l-5.89,30.6c-.09.48-.51.81-.98.81Z"/>
      <path class="cls-1" d="m890.93,223.49c-.34,0-.67-.18-.86-.49-.23-.39-.17-.89.14-1.21l18.47-18.94c.39-.4,1.02-.4,1.41-.02.4.39.4,1.02.02,1.41l-15.83,16.23,26.38-7.61c.54-.15,1.09.15,1.24.68.15.53-.15,1.08-.68,1.24l-30.02,8.65c-.09.03-.19.04-.28.04Z"/>
      <path class="cls-1" d="m938.81,230.75c-.24,0-.48-.09-.66-.25l-29.41-26.2c-.29-.26-.4-.66-.29-1.03.11-.37.43-.65.81-.7l95.72-13.98c.47-.07.92.2,1.09.65.16.45-.02.95-.42,1.19l-66.31,40.18c-.16.1-.34.14-.52.14Zm-27.15-26.52l27.26,24.28,61.45-37.24-88.71,12.96Z"/>
      <path class="cls-1" d="m896.82,192.89c-.25,0-.5-.1-.68-.27l-21.98-20.39c-.32-.3-.41-.77-.22-1.16.19-.39.6-.62,1.04-.56l130.28,18.07c.52.07.89.53.86,1.05s-.46.93-.98.94c0,0-108.3,2.31-108.32,2.31Zm-18.97-19.96l19.35,17.95,95.36-2.04-114.72-15.92Z"/>
    </g>
    <g>
      <path class="cls-1" d="m881.65,217.19c-.06,0-.12,0-.19-.01-.01,0-1.46-.22-3.72-.46-.69-.07-1.19-.69-1.11-1.37.07-.69.7-1.18,1.37-1.11,2.33.24,3.78.46,3.84.47.68.1,1.15.74,1.05,1.42-.09.62-.63,1.06-1.24,1.06Z"/>
      <path class="cls-1" d="m844.1,257.94c-2.48-.03-5.21-.24-8.14-.62-.68-.09-1.17-.72-1.08-1.4.09-.69.73-1.17,1.4-1.08,2.83.37,5.47.57,7.83.6.69,0,1.24.58,1.23,1.27,0,.68-.57,1.23-1.25,1.23Zm7.96-.69c-.58,0-1.09-.4-1.22-.98-.15-.67.28-1.34.95-1.49,2.81-.61,5-1.66,6.53-3.11.5-.48,1.29-.46,1.77.04.48.5.46,1.29-.04,1.77-1.86,1.77-4.46,3.03-7.72,3.74-.09.02-.18.03-.27.03Zm-23.82-1.26c-.08,0-.17,0-.25-.03-2.49-.51-5.13-1.13-7.86-1.84-.67-.17-1.07-.86-.9-1.52.17-.67.86-1.07,1.52-.9,2.68.7,5.29,1.3,7.73,1.81.68.14,1.11.8.97,1.48-.12.59-.64,1-1.22,1Zm-15.51-4c-.12,0-.24-.02-.36-.05-2.51-.76-5.09-1.59-7.66-2.46-.65-.22-1-.93-.78-1.59.22-.65.93-1,1.59-.78,2.55.87,5.1,1.69,7.58,2.44.66.2,1.03.9.83,1.56-.16.54-.66.89-1.2.89Zm48.07-5.34c-.45,0-.89-.25-1.11-.68-.94-1.84-2.97-3.81-4.97-5.67-.5-.47-.53-1.26-.06-1.77s1.26-.53,1.77-.06c2.25,2.1,4.36,4.16,5.49,6.36.32.61.07,1.37-.54,1.68-.18.09-.38.14-.57.14Zm-10.96-11.61c-.34,0-.68-.14-.93-.42-2.28-2.54-3.69-4.83-4.45-7.2-.21-.66.15-1.36.81-1.57.66-.21,1.36.15,1.57.81.65,2.03,1.9,4.02,3.93,6.29.46.51.42,1.3-.1,1.77-.24.21-.54.32-.83.32Zm-2.94-14.22c-.31,0-.61-.11-.86-.34-.5-.47-.53-1.26-.06-1.77,1.62-1.73,4.21-3.04,7.68-3.89.67-.17,1.35.25,1.51.92.16.67-.25,1.35-.92,1.51-2.99.73-5.16,1.8-6.45,3.17-.25.26-.58.39-.91.39Zm14.98-4.62c-.66,0-1.21-.51-1.25-1.18-.04-.69.49-1.28,1.18-1.32,2.48-.14,5.23-.16,8.12-.05.69.03,1.23.61,1.2,1.3-.03.69-.62,1.22-1.29,1.2-2.81-.1-5.49-.09-7.89.05-.02,0-.05,0-.07,0Z"/>
      <path class="cls-1" d="m797.53,246.83c-.15,0-.3-.03-.44-.08-2.27-.85-3.58-1.39-3.58-1.39-.64-.26-.94-.99-.68-1.63.26-.64.99-.95,1.63-.68,0,0,1.3.53,3.51,1.37.65.24.97.96.73,1.61-.19.5-.66.81-1.17.81Z"/>
    </g>
  </g>
  <g>
    <g>
      <path class="cls-1" d="m924.9,375.34c-.09,0-.18-.01-.27-.04-.53-.15-.84-.7-.7-1.23l4.24-15.27c.15-.53.7-.84,1.23-.7.53.15.84.7.7,1.23l-4.24,15.27c-.12.44-.53.73-.96.73Z"/>
      <path class="cls-1" d="m985.77,418.71c-.12,0-.24-.02-.36-.07l-109.36-41.58c-.4-.15-.66-.54-.64-.96.01-.42.29-.79.69-.93l35.06-11.35c.3-.1.63-.05.89.14l74.29,52.93c.41.29.54.84.3,1.29-.18.33-.52.53-.88.53Zm-106.35-42.51l99.43,37.81-67.55-48.13-31.88,10.32Z"/>
      <path class="cls-1" d="m985.77,418.71c-.26,0-.53-.1-.72-.31l-56.64-58.65c-.24-.25-.33-.6-.25-.94.08-.33.33-.6.66-.71l29.34-9.5c.5-.16,1.04.09,1.24.58l27.3,68.14c.18.44.02.95-.39,1.21-.17.11-.36.16-.54.16Zm-54.81-59.19l51.98,53.82-25.05-62.54-26.93,8.71Z"/>
    </g>
    <g>
      <path class="cls-1" d="m810.52,352.3c-.12,0-.23-.02-.35-.05-.66-.19-1.04-.89-.85-1.55.02-.06.43-1.46,1.33-3.7.26-.64.99-.95,1.63-.69.64.26.95.99.69,1.63-.85,2.11-1.25,3.45-1.25,3.46-.16.54-.66.9-1.2.9Z"/>
      <path class="cls-1" d="m859.39,354.53c-1.63,0-3.2-.34-4.66-1.01-.62-.29-.94-1.05-.66-1.67.28-.63.97-.92,1.61-.64,0,0,.1.04.1.05,1.95.9,4.19,1.02,6.53.35.66-.19,1.36.19,1.55.85.19.66-.19,1.36-.85,1.55-1.22.35-2.44.53-3.62.53Zm9.91-4.25c-.35,0-.7-.15-.95-.43-.45-.52-.39-1.31.13-1.76,1.79-1.54,3.41-3.46,4.69-5.56.36-.59,1.13-.77,1.72-.41.59.36.77,1.13.41,1.72-1.42,2.31-3.21,4.44-5.19,6.14-.24.2-.53.3-.82.3Zm-19.04-2.28c-.54,0-1.04-.35-1.2-.9-.31-1.05-.47-2.18-.47-3.37,0-1.58.28-3.24.82-4.93.21-.66.91-1.02,1.57-.81.66.21,1.02.91.81,1.57-.46,1.45-.7,2.85-.7,4.17,0,.94.12,1.84.36,2.66.19.66-.18,1.36-.85,1.55-.12.03-.24.05-.35.05Zm61.09-1.51c-.41,0-.81-.2-1.05-.57-1.41-2.15-2.91-4.21-4.45-6.1-.44-.54-.36-1.32.18-1.76.53-.44,1.32-.36,1.76.18,1.6,1.96,3.15,4.09,4.6,6.31.38.58.22,1.35-.36,1.73-.21.14-.45.2-.68.2Zm-96.23-4.71c-.2,0-.41-.05-.6-.15-.61-.33-.83-1.09-.5-1.7,1.28-2.33,2.68-4.56,4.18-6.63.41-.56,1.19-.68,1.75-.28.56.4.69,1.19.28,1.75-1.43,1.98-2.78,4.13-4.01,6.37-.23.42-.66.65-1.1.65Zm62.03-4.42c-.09,0-.18,0-.27-.03-.67-.15-1.1-.81-.96-1.49.26-1.19.39-2.36.39-3.49,0-1.23-.15-2.41-.46-3.52-.18-.67.21-1.35.88-1.53.66-.18,1.35.21,1.53.88.36,1.33.54,2.73.54,4.18,0,1.3-.15,2.66-.44,4.02-.13.58-.64.99-1.22.99Zm24.48-2.72c-.31,0-.62-.11-.86-.35-1.87-1.78-3.82-3.38-5.79-4.74-.57-.39-.71-1.17-.32-1.74.39-.57,1.17-.71,1.74-.32,2.08,1.43,4.13,3.11,6.09,4.99.5.48.52,1.27.04,1.77-.25.26-.57.39-.9.39Zm-47.38-.92c-.27,0-.54-.09-.77-.26-.55-.42-.64-1.21-.22-1.75,1.63-2.1,3.57-3.96,5.78-5.55.56-.4,1.34-.28,1.75.28.4.56.28,1.34-.28,1.75-2.01,1.45-3.78,3.15-5.26,5.06-.25.32-.62.48-.99.48Zm-30.11-4.33c-.31,0-.63-.12-.87-.35-.5-.48-.51-1.27-.03-1.77,1.88-1.93,3.88-3.68,5.95-5.17.56-.4,1.34-.28,1.75.28.4.56.28,1.34-.28,1.75-1.95,1.41-3.85,3.06-5.63,4.89-.25.25-.57.38-.9.38Zm64.85-3.35c-.17,0-.34-.03-.5-.11l-.34-.15c-2.23-.94-4.49-1.63-6.71-2.06-.68-.13-1.12-.79-.99-1.46.13-.68.78-1.12,1.46-.99,2.39.46,4.82,1.2,7.21,2.21l.38.16c.63.28.92,1.01.64,1.65-.21.47-.66.75-1.15.75Zm-22.45-1.2c-.51,0-.99-.32-1.18-.83-.23-.65.1-1.37.75-1.6,1.28-.46,2.59-.83,3.92-1.11-1.17-.75-2.49-1.4-3.96-1.95-.65-.24-.97-.96-.73-1.61.24-.65.96-.97,1.61-.73,2.6.98,4.81,2.25,6.59,3.79.13-.01.27-.02.4-.03.67-.04,1.29.47,1.33,1.16.05.69-.47,1.29-1.16,1.33-2.45.17-4.86.67-7.15,1.5-.14.05-.28.07-.42.07Zm-29.99-4.35c-.47,0-.93-.27-1.14-.73-.29-.63-.01-1.37.62-1.66,2.4-1.1,4.93-1.95,7.51-2.53.68-.15,1.34.27,1.49.95.15.67-.27,1.34-.95,1.49-2.41.54-4.77,1.34-7.02,2.36-.17.08-.35.11-.52.11Zm22.53-2.89c-.06,0-.12,0-.18-.01-2.54-.37-5.06-.53-7.44-.47-.68,0-1.26-.53-1.28-1.22-.02-.69.53-1.26,1.22-1.28,2.53-.07,5.18.1,7.87.49.68.1,1.16.73,1.06,1.42-.09.62-.62,1.07-1.24,1.07Z"/>
      <path class="cls-1" d="m916.91,356.64c-.49,0-.95-.29-1.15-.77,0-.01-.55-1.31-1.6-3.34-.32-.61-.08-1.37.53-1.69.61-.32,1.37-.08,1.69.53,1.11,2.13,1.67,3.47,1.69,3.53.27.64-.03,1.37-.67,1.63-.16.07-.32.1-.48.1Z"/>
    </g>
  </g>
  <g>
    <g>
      <path class="cls-1" d="m695.07,418.03c-.11,0-.22-.02-.32-.05-.33-.11-.58-.39-.65-.72l-9.7-42.46c-.12-.54.21-1.07.75-1.2.54-.13,1.07.21,1.2.75l9.34,40.88,59.87-49.87-83.1-51.8,8.8,38.52c.12.54-.21,1.07-.75,1.2-.54.13-1.07-.21-1.2-.75l-9.34-40.86c-.09-.39.07-.8.39-1.04.33-.23.77-.25,1.11-.03l86.31,53.8c.27.17.45.46.47.78.02.32-.11.63-.36.84l-62.18,51.8c-.18.15-.41.23-.64.23Z"/>
      <path class="cls-1" d="m685.37,375.57c-.06,0-.12,0-.18-.02l-22.57-4.07c-.5-.09-.85-.54-.82-1.05.03-.51.44-.91.94-.94l94.45-5.26c.54-.03,1,.37,1.05.91.05.54-.33,1.01-.87,1.08l-71.89,9.33s-.09,0-.13,0Zm-14.02-4.54l14.04,2.53,44.73-5.81-58.78,3.28Z"/>
      <path class="cls-1" d="m662.8,371.5c-.25,0-.5-.09-.69-.28-.4-.38-.41-1.02-.03-1.41l17.48-18.2c.23-.24.56-.35.89-.29l76.97,12.94c.54.09.91.61.82,1.15-.09.54-.6.91-1.15.82l-76.45-12.85-17.11,17.82c-.2.21-.46.31-.72.31Z"/>
    </g>
    <g>
      <path class="cls-1" d="m587.02,306.93s-.05,0-.07,0c-.69-.04-1.21-.63-1.17-1.32.14-2.43.37-3.86.38-3.92.11-.68.75-1.14,1.43-1.03.68.11,1.14.75,1.04,1.43,0,.01-.22,1.38-.35,3.66-.04.66-.59,1.18-1.25,1.18Z"/>
      <path class="cls-1" d="m641.88,369.56c-.06,0-.12,0-.18-.01-2.64-.37-5.23-.84-7.71-1.38-.67-.15-1.1-.82-.95-1.49.15-.67.81-1.1,1.49-.95,2.41.53,4.94.99,7.51,1.35.68.1,1.16.73,1.06,1.41-.09.62-.62,1.08-1.24,1.08Zm-15.08-3.38c-.13,0-.25-.02-.38-.06-2.55-.82-5.02-1.76-7.35-2.8-.63-.28-.91-1.02-.63-1.65.28-.63,1.02-.91,1.65-.63,2.25,1,4.63,1.91,7.1,2.7.66.21,1.02.92.81,1.57-.17.53-.66.87-1.19.87Zm-14.08-6.33c-.22,0-.45-.06-.65-.18-2.28-1.39-4.45-2.92-6.45-4.57-.53-.44-.61-1.23-.17-1.76.44-.54,1.23-.61,1.76-.17,1.91,1.57,3.98,3.04,6.17,4.36.59.36.78,1.13.42,1.72-.24.39-.65.6-1.07.6Zm-11.89-9.8c-.34,0-.68-.14-.93-.42-1.76-1.96-3.38-4.07-4.82-6.29-.38-.58-.21-1.35.36-1.73.58-.38,1.35-.21,1.73.36,1.37,2.11,2.92,4.12,4.59,5.98.46.51.42,1.3-.1,1.77-.24.21-.54.32-.83.32Zm-8.43-12.91c-.47,0-.93-.27-1.14-.73-1.08-2.35-2.02-4.84-2.79-7.4-.2-.66.17-1.36.83-1.56.67-.2,1.36.17,1.56.83.74,2.45,1.64,4.83,2.67,7.08.29.63.01,1.37-.61,1.66-.17.08-.35.11-.52.11Zm-4.51-14.78c-.6,0-1.12-.43-1.23-1.04-.44-2.56-.74-5.2-.89-7.84-.04-.69.49-1.28,1.18-1.32.71-.03,1.28.49,1.32,1.18.15,2.55.43,5.09.86,7.56.12.68-.34,1.33-1.02,1.44-.07.01-.14.02-.21.02Z"/>
      <path class="cls-1" d="m653.45,370.59s-.04,0-.05,0c-1.3-.06-2.58-.13-3.84-.22-.69-.05-1.21-.65-1.16-1.34.05-.69.64-1.2,1.34-1.16,1.23.09,2.49.16,3.77.22.69.03,1.22.61,1.2,1.3-.03.67-.58,1.2-1.25,1.2Z"/>
    </g>
  </g>
</svg>